<svg xmlns="http://www.w3.org/2000/svg" width="174.091" height="277.5" viewBox="0 0 174.091 277.5">
  <path id="Path_3111" data-name="Path 3111" d="M650.545,162.465c-10.353,0-18.377,2.587-24.82,6.55-1.572,1.2-3.187,2.362-4.861,3.48-.489.4-4.139,2.231-6.584,3.534V141.311h35.436c22.989,0,22.989-30.755,0-30.755h-43.5c-3.88-8.659-6.867-15.829-3.285-18.811a9.178,9.178,0,0,1,3.583-1.494c2.387,0,5.076,1.494,9.259,3.88a10.467,10.467,0,0,0,4.774.9c15.229,0,50.167-17.918,39.419-37.623-9.259-17.02-32.849-24.488-50.465-24.488-40.312,0-62.409,28.368-62.409,57.332,0,9.254,1.494,15.229,3.587,20.305H546.2c-22.99,0-22.99,30.755,0,30.755h11.944V243.534c0,24.781-11.646,36.427-11.646,51.953,0,13.14,14.931,14.931,40.312,14.931s40.908-1.791,40.908-14.931c0-.581-.054-1.147-.093-1.718,6.033,3,13.935,5.193,24.234,5.193,32.288,0,50.924-25.2,51.187-62.736C703.3,197.9,683.36,162.465,650.545,162.465Zm-8.664,93.974c-15.751,0-21.525-18.641-23.1-26.25v-5.252c1.572-5.511,6.033-18.636,16.01-18.636,6.565,0,15.751,3.675,19.163,21.262S651.858,256.439,641.881,256.439Z" transform="translate(-528.957 -32.918)" fill="#f58220"/>
</svg>
