<svg id="Group_1597" data-name="Group 1597" xmlns="http://www.w3.org/2000/svg" width="311" height="66.707" viewBox="0 0 311 66.707">
  <g id="Group_1594" data-name="Group 1594">
    <path id="Path_3088" data-name="Path 3088" d="M39.757,793.222H27.168c-5.121,0-9.035.361-9.035,3.134,0,3.011,3.251,8.071,3.251,12.709V821.9c0,5-2.348,7.35-2.348,10.483,0,2.65,3.011,3.011,8.132,3.011s8.253-.361,8.253-3.011c0-3.134-2.712-5.482-2.712-10.483v-2.952c3.254,1.026,3.676,2.108,4.94,2.108,1.688,0,2.351-3.011,2.351-5.541V813.1c0-2.592-.663-5.664-2.351-5.664-1.264,0-1.686,1.085-4.94,2.11v-.484c0-3.494,0-7.168,2.832-7.168h1.387c1.926,0,2.829.9,3.313,2.832.542,2.169,3.855,3.615,6.986,3.673,2.832,0,5.482-1.264,5.482-4.336C52.709,796.233,46.807,793.222,39.757,793.222Z" transform="translate(-18.133 -790.211)" fill="#f58220"/>
    <path id="Path_3089" data-name="Path 3089" d="M65.865,804.112c4.216-.182,7.59-2.712,7.59-5.784,0-3.193-3.676-5.781-8.132-5.781a11.98,11.98,0,0,0-2.65.3c-6.268,1.026-11.87,5.06-15.9,13.916a7.48,7.48,0,0,0-2.591-.361c-10.542.059-12.65,3.372-12.65,6.024,0,3.131,3.254,5.18,3.254,9.818v.783c0,5-2.351,7.35-2.351,10.483,0,2.65,3.014,3.011,8.132,3.011s8.253-.361,8.253-3.011c0-2.351-1.5-4.277-2.287-7.171C47.311,813.088,57.07,804.112,65.865,804.112Z" transform="translate(4.256 -791.341)" fill="#f58220"/>
    <path id="Path_3090" data-name="Path 3090" d="M55.506,813.574c0-4.638,2.653-9.7,2.653-12.832,0-2.65-2.53-3.011-4.579-3.011-10.6.059-12.65,3.371-12.65,6.024,0,3.131,3.251,5.18,3.251,9.818v.783c0,5-2.348,7.35-2.348,10.483,0,2.65,3.011,3.011,8.132,3.011s8.253-.361,8.253-3.011c0-3.134-2.712-5.482-2.712-10.483Z" transform="translate(19.974 -782.672)" fill="#f58220"/>
    <path id="Path_3091" data-name="Path 3091" d="M78.515,807.938c0-4.638,2.65-9.7,2.65-12.832,0-2.65-2.469-3.011-4.576-3.011-10.542,0-12.653,3.372-12.653,6.022,0,3.134,3.254,5.183,3.254,9.821v1.325a10.1,10.1,0,0,0-7.288-2.712c-7.59,0-12.11,8.132-12.049,16.927.061,8.616,4.277,14.4,11.747,14.4a11.63,11.63,0,0,0,6.265-1.624c1.325.842,3.794,1.023,7.109,1.023,5.119,0,8.253-.361,8.253-3.011,0-3.134-2.712-5.482-2.712-10.483ZM67.19,821.974c-.3,1.624-1.566,6.145-5.3,6.145-2.29,0-3.556-2.591-2.773-6.628s2.893-4.879,4.339-4.879c2.41,0,3.433,3.193,3.735,4.4Z" transform="translate(31.546 -792.095)" fill="#f58220"/>
    <path id="Path_3092" data-name="Path 3092" d="M89.652,814.735l.24-4.94c.484-9.818-7.229-12.289-14.758-12.289-5,0-13.916.844-13.916,7.048a6.206,6.206,0,0,0,6.024,6.024c4.339,0,5.6-5,10-5a2.167,2.167,0,0,1,1.325.361c.6,1.143-1.806,2.108-4.216,3.134-5.843,2.469-13.556,3.914-13.556,10.962,0,5.183,3.735,8.795,9.88,8.795,3.556,0,5.845-.721,7.229-1.867,1.2,1.026,3.494,1.266,6.086,1.266h1.143c2.712,0,6.807-.182,6.807-3.011C91.941,822.266,89.35,820.941,89.652,814.735Zm-11.686,2.77a6.718,6.718,0,0,1-4.218,2.351c-.542,0-.9-.24-.9-.724,0-1.445,2.29-2.049,5.664-4.7Q78.236,815.972,77.966,817.505Z" transform="translate(53.182 -783.05)" fill="#f58220"/>
    <path id="Path_3093" data-name="Path 3093" d="M104.969,797.732c-7.71,0-10.12,3.371-10.12,6.024,0,2.41.964,4.336.721,7.47-.24,3.492-1.264,10.3-3.131,10.3-1.747,0-2.893-5.6-3.374-7.951-1.507-7.349.844-9.7.844-12.832,0-2.65-2.471-3.011-4.579-3.011-10.542.059-12.65,3.371-12.65,6.024,0,3.131,2.53,3.855,4.638,10.179l.9,2.712c3.313,9.88,7.892,11.806,13.614,11.806-1.325,4.94-2.589,7.349-4.154,7.349-.3,0-.484-.419-.484-1.747,0-3.492-3.494-5.3-6.927-5.3-3.494,0-6.989,1.808-6.989,5.6,0,6.086,4.82,9.158,12.289,9.158,15.784,0,18.375-20.844,21.325-33.133,1.085-4.459,3.315-6.567,3.254-9.337C110.09,799.177,108.041,797.732,104.969,797.732Z" transform="translate(73.047 -782.672)" fill="#f58220"/>
    <path id="Path_3094" data-name="Path 3094" d="M125.459,811.61s3.014-2.471,3.014-7.71c0-5.843-3.615-10.9-11.386-10.9a11.015,11.015,0,0,0-7.47,2.709c-.663-1.806-3.556-2.108-8.012-2.108-5.121,0-9.035.361-9.035,3.011,0,3.134,3.251,8.194,3.251,12.832v12.832c0,5-2.348,7.35-2.348,10.483,0,2.65,3.011,3.011,8.132,3.011,3.735,0,6.447-.182,7.59-1.325a14.486,14.486,0,0,0,7.229,1.926c9.4,0,13.614-6.986,13.614-13.914C130.038,814.2,125.459,811.61,125.459,811.61Zm-18.314-2.169a12.829,12.829,0,0,1,.061-1.5c1.143-2.53,3.131-4.7,6.083-4.64,1.688,0,3.436.724,3.494,2.952.12,4.758-5.723,3.916-9.639,5.9Zm6.024,18.194c-3.193,0-5.723-1.686-6.024-5.122v-.24c0-1.867.6-2.65,2.471-3.494a5.4,5.4,0,0,1,2.41-.481c2.952,0,6.083,1.988,6.083,5.06C118.109,826.731,115.459,827.634,113.17,827.634Z" transform="translate(106.294 -790.587)" fill="#f58220"/>
    <path id="Path_3095" data-name="Path 3095" d="M130.417,797.506a8.613,8.613,0,0,0-6.265,2.65c-.542-1.747-2.65-2.046-4.456-2.046-10.542.059-12.65,3.371-12.65,6.024,0,3.131,3.251,5.18,3.251,9.818v.783c0,5-2.348,7.35-2.348,10.483,0,2.65,3.011,3.011,8.132,3.011s8.253-.361,8.253-3.011c0-3.134-2.712-5.482-2.712-10.483v-.783a8.325,8.325,0,0,1,.061-1.2,4.794,4.794,0,0,1,3.794-2.228c1.507,0,1.929,1.2,4.82,1.264,3.072.062,8.314-4.7,6.748-9.938C136.14,798.831,133.067,797.506,130.417,797.506Z" transform="translate(130.493 -783.05)" fill="#f58220"/>
    <path id="Path_3096" data-name="Path 3096" d="M159.53,802.8a10.92,10.92,0,0,0,.31-1.467,6.842,6.842,0,0,0,.064-.879c0-2.592-2.469-2.947-4.579-2.947-10.542.059-12.65,3.3-12.65,5.893,0,3.065,3.254,5.068,3.254,9.6v.355c-.663,3.358-.123,4.633-8.039,4.772a4.157,4.157,0,0,1-3.975-4.36V813c0-4.536,2.65-9.487,2.65-12.551,0-2.592-2.471-2.947-4.579-2.947-10.542.059-12.65,3.3-12.65,5.893,0,3.065,3.254,5.068,3.254,9.6v.767c0,8.554,1.98,13.182,7.569,14.13l.029.024c0,.04,0,.077,0,.117v1.7a1.7,1.7,0,0,0,1.715,1.68H152.56a1.7,1.7,0,0,0,1.715-1.68v-2.252c3.58-.155,5.688-2.958,5.688-5.084a7.083,7.083,0,0,0-.564-2.581l-1.94-5.319a5.563,5.563,0,0,1-.206-1.5h0a27.823,27.823,0,0,1,1.619-7.793Z" transform="translate(151.037 -783.05)" fill="#f58220"/>
  </g>
  <g id="Group_1596" data-name="Group 1596" transform="translate(198.863 61.006)">
    <g id="Group_1595" data-name="Group 1595">
      <path id="Path_3097" data-name="Path 3097" d="M96.373,814.93h.275c.056,0,.083.027.083.08v5.541c0,.054-.027.08-.083.08h-.267c-.056,0-.083-.027-.083-.08v-4.782c0-.016-.005-.027-.016-.029s-.019.005-.024.021l-1.435,2.215a.113.113,0,0,1-.1.059h-.139a.11.11,0,0,1-.1-.059l-1.451-2.207c-.005-.016-.016-.021-.024-.016a.03.03,0,0,0-.019.032v4.766a.071.071,0,0,1-.08.08h-.27a.071.071,0,0,1-.08-.08V815.01a.071.071,0,0,1,.08-.08h.286a.124.124,0,0,1,.1.056l1.595,2.444.024.008.024-.008,1.6-2.444A.121.121,0,0,1,96.373,814.93Z" transform="translate(-92.569 -814.93)"/>
      <path id="Path_3098" data-name="Path 3098" d="M99.405,820.567l-.35-1.085a.034.034,0,0,0-.035-.024H96.48a.031.031,0,0,0-.032.024l-.342,1.085a.1.1,0,0,1-.1.064h-.283c-.061,0-.083-.029-.067-.088l1.809-5.549a.1.1,0,0,1,.1-.064h.366a.1.1,0,0,1,.1.064l1.814,5.549.011.032c0,.037-.024.056-.075.056H99.5A.1.1,0,0,1,99.405,820.567Zm-2.824-1.48.029.013h2.282l.027-.013a.018.018,0,0,0,.005-.027l-1.149-3.542a.025.025,0,0,0-.048,0l-1.149,3.542A.02.02,0,0,0,96.582,819.087Z" transform="translate(-87.415 -814.93)"/>
      <path id="Path_3099" data-name="Path 3099" d="M98.746,820.551V815.01c0-.054.027-.08.083-.08H99.1a.071.071,0,0,1,.08.08v2.877a.025.025,0,0,0,.019.024.016.016,0,0,0,.024-.008l2.752-2.933a.137.137,0,0,1,.1-.04h.3a.07.07,0,0,1,.067.029c.011.019.005.04-.016.07l-2.036,2.239c-.011.011-.011.027,0,.048l2.223,3.219.016.04c0,.037-.024.056-.072.056h-.318a.113.113,0,0,1-.1-.048l-2.044-2.957a.026.026,0,0,0-.024-.016l-.024.008-.847.871a.053.053,0,0,0-.019.043v2.02a.071.071,0,0,1-.08.08h-.267C98.773,820.631,98.746,820.6,98.746,820.551Z" transform="translate(-82.244 -814.93)"/>
      <path id="Path_3100" data-name="Path 3100" d="M105.247,815.312h-3.088c-.021,0-.032.011-.032.035v2.2a.028.028,0,0,0,.032.032h2.191a.073.073,0,0,1,.083.08v.222a.073.073,0,0,1-.083.08h-2.191a.028.028,0,0,0-.032.032v2.225a.028.028,0,0,0,.032.032h3.088c.053,0,.08.027.08.083v.219a.071.071,0,0,1-.08.08h-3.47a.073.073,0,0,1-.083-.08V815.01a.073.073,0,0,1,.083-.08h3.47a.071.071,0,0,1,.08.08v.222A.071.071,0,0,1,105.247,815.312Z" transform="translate(-77.316 -814.93)"/>
      <path id="Path_3101" data-name="Path 3101" d="M106.362,820.551V815.01a.073.073,0,0,1,.083-.08h.27a.071.071,0,0,1,.08.08v5.207a.028.028,0,0,0,.032.032h2.925c.053,0,.08.027.08.083v.219a.071.071,0,0,1-.08.08h-3.307A.073.073,0,0,1,106.362,820.551Z" transform="translate(-69.513 -814.93)"/>
      <path id="Path_3102" data-name="Path 3102" d="M109.188,820.551V815.01a.073.073,0,0,1,.083-.08h.27a.071.071,0,0,1,.08.08v5.541a.071.071,0,0,1-.08.08h-.27A.073.073,0,0,1,109.188,820.551Z" transform="translate(-64.789 -814.93)"/>
      <path id="Path_3103" data-name="Path 3103" d="M114.617,815.312h-3.08c-.021,0-.032.011-.032.035v2.2a.028.028,0,0,0,.032.032h2.183c.056,0,.083.027.083.08v.222c0,.054-.027.08-.083.08h-2.183a.028.028,0,0,0-.032.032v2.559a.071.071,0,0,1-.08.08h-.27a.073.073,0,0,1-.083-.08V815.01a.073.073,0,0,1,.083-.08h3.462a.071.071,0,0,1,.08.08v.222A.071.071,0,0,1,114.617,815.312Z" transform="translate(-61.639 -814.93)"/>
      <path id="Path_3104" data-name="Path 3104" d="M117.459,815.312h-3.086c-.021,0-.032.011-.032.035v2.2a.028.028,0,0,0,.032.032h2.191a.073.073,0,0,1,.083.08v.222a.073.073,0,0,1-.083.08h-2.191a.028.028,0,0,0-.032.032v2.225a.028.028,0,0,0,.032.032h3.086a.072.072,0,0,1,.083.083v.219c0,.054-.027.08-.083.08h-3.468c-.056,0-.083-.027-.083-.08V815.01c0-.054.027-.08.083-.08h3.468c.056,0,.083.027.083.08v.222C117.541,815.285,117.515,815.312,117.459,815.312Z" transform="translate(-56.899 -814.93)"/>
      <path id="Path_3105" data-name="Path 3105" d="M121.3,817.677l.016.013a1.518,1.518,0,0,1,.681.548,1.5,1.5,0,0,1,.24.855,1.442,1.442,0,0,1-.451,1.127,1.7,1.7,0,0,1-1.194.412h-1.929c-.056,0-.083-.027-.083-.08V815.01c0-.054.027-.08.083-.08h1.873a1.745,1.745,0,0,1,1.2.39,1.377,1.377,0,0,1,.441,1.085,1.259,1.259,0,0,1-.858,1.253Zm-2.287-2.33v2.132c0,.024.008.035.032.035h1.491a1.255,1.255,0,0,0,.882-.3,1,1,0,0,0,.331-.785,1.044,1.044,0,0,0-.331-.81,1.236,1.236,0,0,0-.882-.307h-1.491C119.017,815.312,119.009,815.323,119.009,815.347Zm2.463,4.574a1.275,1.275,0,0,0-.011-1.721,1.288,1.288,0,0,0-.914-.321h-1.507c-.024,0-.032.011-.032.032v2.3c0,.021.008.032.032.032h1.547A1.215,1.215,0,0,0,121.472,819.921Z" transform="translate(-49.096 -814.93)"/>
      <path id="Path_3106" data-name="Path 3106" d="M125.144,815.312h-3.088c-.021,0-.032.011-.032.035v2.2a.028.028,0,0,0,.032.032h2.193a.072.072,0,0,1,.08.08v.222a.072.072,0,0,1-.08.08h-2.193a.028.028,0,0,0-.032.032v2.225a.028.028,0,0,0,.032.032h3.088c.053,0,.08.027.08.083v.219a.071.071,0,0,1-.08.08h-3.47a.073.073,0,0,1-.083-.08V815.01a.073.073,0,0,1,.083-.08h3.47a.071.071,0,0,1,.08.08v.222A.071.071,0,0,1,125.144,815.312Z" transform="translate(-44.056 -814.93)"/>
      <path id="Path_3107" data-name="Path 3107" d="M128.22,815.01v.222a.071.071,0,0,1-.08.08h-1.63c-.021,0-.032.011-.032.035v5.2c0,.054-.027.08-.083.08h-.267c-.056,0-.083-.027-.083-.08v-5.2c0-.024-.011-.035-.032-.035h-1.547c-.056,0-.083-.027-.083-.08v-.222c0-.054.027-.08.083-.08h3.673A.071.071,0,0,1,128.22,815.01Z" transform="translate(-39.387 -814.93)"/>
      <path id="Path_3108" data-name="Path 3108" d="M131.041,815.01v.222a.073.073,0,0,1-.083.08h-1.63c-.021,0-.032.011-.032.035v5.2a.071.071,0,0,1-.08.08h-.27a.071.071,0,0,1-.08-.08v-5.2c0-.024-.011-.035-.035-.035h-1.547a.071.071,0,0,1-.08-.08v-.222a.071.071,0,0,1,.08-.08h3.673A.073.073,0,0,1,131.041,815.01Z" transform="translate(-34.672 -814.93)"/>
      <path id="Path_3109" data-name="Path 3109" d="M133.744,815.312h-3.086c-.024,0-.035.011-.035.035v2.2c0,.021.011.032.035.032h2.191a.071.071,0,0,1,.08.08v.222a.071.071,0,0,1-.08.08h-2.191c-.024,0-.035.011-.035.032v2.225c0,.021.011.032.035.032h3.086a.073.073,0,0,1,.083.083v.219a.073.073,0,0,1-.083.08h-3.47a.071.071,0,0,1-.08-.08V815.01a.071.071,0,0,1,.08-.08h3.47a.073.073,0,0,1,.083.08v.222A.073.073,0,0,1,133.744,815.312Z" transform="translate(-29.677 -814.93)"/>
      <path id="Path_3110" data-name="Path 3110" d="M136.436,820.575l-1.248-2.592a.031.031,0,0,0-.032-.024h-1.539a.028.028,0,0,0-.032.032v2.559a.073.073,0,0,1-.083.08h-.267c-.056,0-.083-.027-.083-.08V815.01c0-.054.027-.08.083-.08h2.052a1.482,1.482,0,0,1,1.1.425,1.662,1.662,0,0,1,.1,2.081,1.371,1.371,0,0,1-.855.492c-.027.011-.035.024-.024.04l1.245,2.567a.064.064,0,0,1,.008.04c0,.037-.021.056-.064.056h-.267A.1.1,0,0,1,136.436,820.575Zm-2.851-5.228v2.223a.028.028,0,0,0,.032.032h1.627a1.1,1.1,0,0,0,.82-.318,1.122,1.122,0,0,0,.313-.823,1.136,1.136,0,0,0-.313-.831,1.1,1.1,0,0,0-.82-.318h-1.627C133.6,815.312,133.586,815.323,133.586,815.347Z" transform="translate(-24.729 -814.93)"/>
    </g>
  </g>
</svg>
