<svg id="Component_4_1" data-name="Component 4 – 1" xmlns="http://www.w3.org/2000/svg" width="62.002" height="39" viewBox="0 0 62.002 39">
  <g id="Union_2" data-name="Union 2" transform="translate(19202 -964.999)" fill="none">
    <path d="M-19193,1004a9,9,0,0,1-9-9v-2a9,9,0,0,1,6-8.49V983a9,9,0,0,1,9-9h5a9,9,0,0,1,9-9h4a9,9,0,0,1,9,9h5a9,9,0,0,1,9,9,10.879,10.879,0,0,1-.1,1.48A9.006,9.006,0,0,1-19140,993a11,11,0,0,1-11,11Z" stroke="none"/>
    <path d="M -19151 1002.99951171875 C -19145.484375 1002.99951171875 -19140.998046875 998.5148315429688 -19140.998046875 993.0023803710938 C -19140.998046875 989.5730590820313 -19143.177734375 986.5277099609375 -19146.423828125 985.4243774414063 L -19147.205078125 985.1588745117188 L -19147.091796875 984.3416748046875 C -19147.033203125 983.9048461914063 -19147.001953125 983.4527587890625 -19147.001953125 982.998046875 C -19147.001953125 978.58837890625 -19150.58984375 975.0008544921875 -19155 975.0008544921875 L -19161.001953125 975.0008544921875 L -19161.001953125 974.0008544921875 C -19161.001953125 969.5885620117188 -19164.58984375 965.9988403320313 -19168.998046875 965.9988403320313 L -19172.998046875 965.9988403320313 C -19177.41015625 965.9988403320313 -19181 969.5885620117188 -19181 974.0008544921875 L -19181 975.0008544921875 L -19186.998046875 975.0008544921875 C -19191.41015625 975.0008544921875 -19195 978.58837890625 -19195 982.998046875 L -19195 985.219970703125 L -19195.666015625 985.4556274414063 C -19198.857421875 986.5833129882813 -19201 989.6160888671875 -19201 993.0023803710938 L -19201 995.0023193359375 C -19201 999.4119873046875 -19197.41015625 1002.99951171875 -19192.998046875 1002.99951171875 L -19151 1002.99951171875 M -19151 1003.99951171875 L -19192.998046875 1003.99951171875 C -19197.970703125 1003.99951171875 -19202 999.9707641601563 -19202 995.0023193359375 L -19202 993.0023803710938 C -19202 989.0821533203125 -19199.49609375 985.7486572265625 -19196 984.5128173828125 L -19196 982.998046875 C -19196 978.029541015625 -19191.970703125 974.0008544921875 -19186.998046875 974.0008544921875 L -19182 974.0008544921875 C -19182 969.0275268554688 -19177.97265625 964.9988403320313 -19172.998046875 964.9988403320313 L -19168.998046875 964.9988403320313 C -19164.03125 964.9988403320313 -19160.001953125 969.0275268554688 -19160.001953125 974.0008544921875 L -19155 974.0008544921875 C -19150.03125 974.0008544921875 -19146.001953125 978.029541015625 -19146.001953125 982.998046875 C -19146.001953125 983.4998779296875 -19146.03515625 983.9935913085938 -19146.1015625 984.4776000976563 C -19142.552734375 985.6842041015625 -19139.998046875 989.044189453125 -19139.998046875 993.0023803710938 C -19139.998046875 999.0744018554688 -19144.927734375 1003.99951171875 -19151 1003.99951171875 Z" stroke="none" fill="#000"/>
  </g>
  <g id="Group_110" data-name="Group 110" transform="translate(-2617.5 1002.049) rotate(-90)">
    <path id="Path_21" data-name="Path 21" d="M0,0,7.741,8.192,15.332,0" transform="translate(982.878 2656.166) rotate(-90)" fill="none" stroke="#000" stroke-width="3"/>
    <line id="Line_22" data-name="Line 22" x2="19.57" transform="translate(971.5 2648.5)" fill="none" stroke="#000" stroke-width="3"/>
  </g>
</svg>
